<svg xmlns="http://www.w3.org/2000/svg" viewBox="0 0 52 52" width="52" height="52">
	<style>
		tspan { white-space:pre }
		.shp0 { fill: none;stroke: #707070;stroke-linecap:round;stroke-linejoin:round;stroke-width: 2 } 
	</style>
	<g id="Layer">
		<path id="Layer" class="shp0" d="M34.78 36L34.78 33.78C34.78 33.19 34.66 32.62 34.44 32.08C34.22 31.54 33.89 31.05 33.48 30.63C33.06 30.22 32.57 29.89 32.03 29.67C31.49 29.45 30.92 29.33 30.33 29.33L21.44 29.33C20.86 29.33 20.28 29.45 19.74 29.67C19.2 29.89 18.71 30.22 18.3 30.63C17.89 31.05 17.56 31.54 17.34 32.08C17.11 32.62 17 33.19 17 33.78L17 36" />
		<path id="Layer" class="shp0" d="M30.33 20.44C30.33 22.24 29.25 23.86 27.59 24.55C25.93 25.24 24.02 24.86 22.75 23.59C21.48 22.32 21.1 20.4 21.78 18.74C22.47 17.08 24.09 16 25.89 16C26.47 16 27.05 16.11 27.59 16.34C28.13 16.56 28.62 16.89 29.03 17.3C29.44 17.71 29.77 18.2 29.99 18.74C30.22 19.28 30.33 19.86 30.33 20.44Z" />
	</g>
</svg>