<svg xmlns="http://www.w3.org/2000/svg" width="64.518" height="104.004" viewBox="0 0 64.518 104.004"><defs><style>.a{fill:#707070;}</style></defs><g transform="translate(-97.192 0.001)"><path class="a" d="M139.89,61.114a20.87,20.87,0,0,0,9.245-11.335c.072,0,.143.005.215.005a7.94,7.94,0,0,0,.863-15.833V30.508c1.457-1.467,5-5.974,4.284-14.534a11.233,11.233,0,0,0-3.811-8.043,12.725,12.725,0,0,0-8.009-2.643c-1.893-1.769-8.72-7.268-17.95-4.543a29.507,29.507,0,0,0-5.217,2.106,1.526,1.526,0,1,0,1.4,2.713,26.468,26.468,0,0,1,4.683-1.892c8.844-2.612,15.106,3.927,15.366,4.2a1.538,1.538,0,0,0,1.26.481,9.955,9.955,0,0,1,6.53,1.932,8.319,8.319,0,0,1,2.706,5.94c.553,6.568-1.721,10.193-2.958,11.647-3.044-2.364-5.8-7.262-5.825-7.315a1.537,1.537,0,0,0-2.686.033,13.724,13.724,0,0,1-8.682,6.591,11.962,11.962,0,0,0-2.44-5.985,1.536,1.536,0,0,0-2.338-.032,21.159,21.159,0,0,1-15.757,7.441,2.1,2.1,0,0,1-.56-.092c-2.656-.813-5.289-3.148-7.008-4.935a10.914,10.914,0,0,0,7.894-5.118,1.537,1.537,0,0,0-1.4-2.222,5.457,5.457,0,0,1-5.349-2.786,7.883,7.883,0,0,1-.639-1.44c5.474.271,8.83-1.439,12.032-3.385a1.526,1.526,0,0,0-1.585-2.609c-3.233,1.964-6.38,3.529-12.173,2.773a1.536,1.536,0,0,0-1.72,1.614,11.664,11.664,0,0,0,1.377,4.457,8.288,8.288,0,0,0,5,4.061,10.157,10.157,0,0,1-6.564,1.814A1.537,1.537,0,0,0,98.809,23.2c.2.258,4.7,6.1,9.88,8.028v2.729a7.94,7.94,0,0,0,.863,15.833c.072,0,.143,0,.215-.005a20.869,20.869,0,0,0,9.245,11.335,25.264,25.264,0,0,0-21.819,25v3.171a1.526,1.526,0,0,0,3.053,0V86.11a22.1,22.1,0,0,1,6.187-15.35l19.631,21.6a4.609,4.609,0,0,0,6.777,0l6.416-7.06A1.526,1.526,0,0,0,137,83.248l-6.416,7.06a1.533,1.533,0,0,1-2.259,0l-19.63-21.6a22.239,22.239,0,0,1,2.823-1.9L128.322,85.3a1.536,1.536,0,0,0,2.259,0l16.807-18.493a22.283,22.283,0,0,1,2.823,1.9L141.1,78.728a1.526,1.526,0,1,0,2.259,2.053l9.106-10.02a22.1,22.1,0,0,1,6.187,15.35v14.84h-9.088V89.04a1.526,1.526,0,0,0-3.053,0v11.91H112.386V89.04a1.526,1.526,0,0,0-3.053,0v11.91h-9.088V95.386a1.526,1.526,0,0,0-3.053,0v7.09A1.526,1.526,0,0,0,98.718,104h61.465a1.526,1.526,0,0,0,1.526-1.526V86.11a25.265,25.265,0,0,0-21.819-25ZM131.8,67.772h-4.691l-.866-3.837h6.423Zm22.441-25.929a4.894,4.894,0,0,1-4.325,4.854,20.808,20.808,0,0,0,.3-3.525V37.034A4.895,4.895,0,0,1,154.238,41.844Zm-49.574,0a4.9,4.9,0,0,1,4.025-4.81v6.139a20.811,20.811,0,0,0,.3,3.525A4.894,4.894,0,0,1,104.664,41.844Zm7.077,1.329V31.642a24.53,24.53,0,0,0,15.7-6.985,6.506,6.506,0,0,1,.742,4.106,1.526,1.526,0,0,0,1.638,1.828,17.657,17.657,0,0,0,11.5-6.418,25.533,25.533,0,0,0,5.843,6.5v12.5a17.71,17.71,0,0,1-35.419,0Zm10.678,20.762h.691l1.218,5.4-1.069,5.86-8.864-9.753a22.062,22.062,0,0,1,8.024-1.5ZM129.451,82l-3.608-3.97,1.315-7.21h4.585l1.315,7.21Zm6.192-6.813-1.069-5.86,1.218-5.4h.691a22.06,22.06,0,0,1,8.024,1.5Z" transform="translate(0 0)"/><path class="a" d="M227.569,236.865c5.416,0,7.053-3.806,7.125-3.979h0a1.524,1.524,0,1,0-2.812-1.175c-.077.163-1.066,2.108-4.313,2.108s-4.236-1.944-4.313-2.108a1.524,1.524,0,1,0-2.812,1.175h0C220.516,233.059,222.153,236.865,227.569,236.865Z" transform="translate(-98.118 -183.893)"/><path class="a" d="M204.222,176.049a1.524,1.524,0,0,0-1.523,1.523v4.3a1.523,1.523,0,0,0,3.047,0v-4.3A1.524,1.524,0,0,0,204.222,176.049Z" transform="translate(-84.075 -140.289)"/><path class="a" d="M295.824,183.4a1.524,1.524,0,0,0,1.523-1.523v-4.3a1.523,1.523,0,1,0-3.047,0v4.3A1.523,1.523,0,0,0,295.824,183.4Z" transform="translate(-157.07 -140.289)"/></g></svg>