<svg xmlns="http://www.w3.org/2000/svg" width="93.666" height="93.667" viewBox="0 0 93.666 93.667"><defs><style>.a{fill:#707070;}</style></defs><g transform="translate(-16.003 -16)"><path class="a" d="M393.561,371.122h6.244a1.561,1.561,0,0,0,0-3.122h-6.244a1.561,1.561,0,0,0,0,3.122Z" transform="translate(-302.625 -283.311)"/><path class="a" d="M395.733,400h-9.172a1.561,1.561,0,0,0,0,3.122h9.172a1.561,1.561,0,1,0,0-3.122Z" transform="translate(-296.991 -309.067)"/><path class="a" d="M106.547,97.446V80.006a1.561,1.561,0,0,0-1.561-1.561H84.692V76.883a7.814,7.814,0,0,0-7.806-7.806H64.715a22.005,22.005,0,0,0,8.5-9.367h.55a7.814,7.814,0,0,0,7.806-7.806V44.1a28.1,28.1,0,0,0-56.2,0v7.806a7.814,7.814,0,0,0,7.806,7.806h.55a22.006,22.006,0,0,0,8.5,9.367H30.053a7.818,7.818,0,0,0-7.359,5.207L18.96,66.818h0a1.56,1.56,0,1,0-2.79,1.4h0l6.08,12.16v27.732a1.561,1.561,0,0,0,1.561,1.561h81.178a4.689,4.689,0,0,0,4.683-4.683v-3.122a4.691,4.691,0,0,0-3.122-4.415ZM81.569,76.883v1.561H65.958V72.2H76.886a4.689,4.689,0,0,1,4.683,4.683ZM59.714,80.006v26.539H55.03V74.932l5.21,3.907A1.556,1.556,0,0,0,59.714,80.006ZM44.1,72.2h6.244L44.1,76.883Zm12.489,0h6.244v4.683ZM74.429,56.541a21.788,21.788,0,0,0,.9-6.2V47.491a4.683,4.683,0,0,1-.9,9.05ZM53.469,19.122A25.006,25.006,0,0,1,78.447,44.1v1.565a7.774,7.774,0,0,0-3.122-1.408V44.1A15.629,15.629,0,0,0,59.714,28.489a1.561,1.561,0,0,0-1.561,1.561c0,6.886-4.9,12.489-10.928,12.489H33.175A1.561,1.561,0,0,0,31.614,44.1v.157a7.775,7.775,0,0,0-3.122,1.408V44.1A25.006,25.006,0,0,1,53.469,19.122ZM38.015,48.783H34.736V45.661h4.688a7.774,7.774,0,0,0-1.408,3.122Zm7.648-3.122a4.683,4.683,0,1,1-4.683,4.683A4.683,4.683,0,0,1,45.664,45.661ZM28.492,51.906a4.691,4.691,0,0,1,3.122-4.415v2.854a21.788,21.788,0,0,0,.9,6.2A4.69,4.69,0,0,1,28.492,51.906Zm6.31,0h3.214a7.806,7.806,0,1,0,13.311-6.925c5.3-1.8,9.271-6.987,9.869-13.279A12.5,12.5,0,0,1,72.2,44.1v4.683H68.924a7.806,7.806,0,1,0,0,3.122h3.214a18.733,18.733,0,0,1-37.336,0Zm31.157-1.561a4.683,4.683,0,1,1-4.683-4.683A4.683,4.683,0,0,1,65.958,50.344ZM25.369,76.883A4.689,4.689,0,0,1,30.053,72.2H40.98v7.806a1.561,1.561,0,0,0,2.5,1.249l8.43-6.322v31.612H40.98V98.739a1.561,1.561,0,0,0-1.561-1.561H34.14l-8.77-17.541Zm0,9.735,5.566,11.131a4.687,4.687,0,0,0-2.443,4.112v3.122a4.662,4.662,0,0,0,.269,1.561H25.369Zm7.806,19.926a1.563,1.563,0,0,1-1.561-1.561v-3.122a1.563,1.563,0,0,1,1.561-1.561h4.683v6.244Zm29.661,0V81.567H81.569v24.978ZM97.18,98.739v7.806H84.692V81.567h18.733V97.178H98.742A1.561,1.561,0,0,0,97.18,98.739Zm9.367,6.244a1.563,1.563,0,0,1-1.561,1.561H100.3V100.3h4.683a1.563,1.563,0,0,1,1.561,1.561Z"/><path class="a" d="M186.061,240.262a6.245,6.245,0,0,1-7.635,0,1.561,1.561,0,1,0-1.732,2.6,9.392,9.392,0,0,0,11.1,0,1.561,1.561,0,1,0-1.732-2.6Z" transform="translate(-128.774 -180.288)"/><circle class="a" cx="1.561" cy="1.561" r="1.561" transform="translate(59.714 48.783)"/><circle class="a" cx="1.561" cy="1.561" r="1.561" transform="translate(44.103 48.783)"/></g></svg>